<svg xmlns="http://www.w3.org/2000/svg" viewBox="0 0 215.16 482"><defs><style>.cls-1,.cls-2,.cls-3{fill:#603813;}.cls-1,.cls-3{stroke:#000;stroke-miterlimit:10;}.cls-3{stroke-width:0.75px;}</style></defs><title>Asset 2</title><g id="Layer_2" data-name="Layer 2"><g id="Layer_1-2" data-name="Layer 1"><g id="Calebasse"><path id="chord" class="cls-1" d="M72.15,280.07c18.34,1.45,34,7.57,55.94,16.31C224,339.91,189.79,475,80.62,474.89c-17.85-1.23-25.81-3.9-36.27-8Z"/><path id="circle-flat" class="cls-1" d="M44.67,467c23.35,6.88,39.19-34.3,48.72-58.58a1.35,1.35,0,0,0-.24-1.37l-5.5-6.7a1.38,1.38,0,0,1-.34-.89c.08-4.16,2.66-5.56,7.3-4.69a1.86,1.86,0,0,1,.9.47h0a1.69,1.69,0,0,0,2.84-.67c7.66-40.69,10.94-76,.06-93.87A1.86,1.86,0,0,0,96,300c-1.18.59-3.09.77-6,.45a1.55,1.55,0,0,1-1.44-1.93l1.74-5.32a1.36,1.36,0,0,0-.22-1.24,36.14,36.14,0,0,0-8.5-8.05,1.79,1.79,0,0,0-2.08,0c-1.42,1.06-3.29,1.46-6.37,1.29a1.58,1.58,0,0,1-1.58-1.88l.09-.32a1.66,1.66,0,0,0-2.36-1.75c-12,5.17-19.65,19.69-26.45,35.65-17.31,37.49-30.45,82.3-20.71,115.88a1.23,1.23,0,0,1,0,.63l-.48,2.33a1.32,1.32,0,0,0,.15.95l1.3,2.29a1.41,1.41,0,0,1,.18.75L23.2,441a1.41,1.41,0,0,0,.27.88l.18.26a1.35,1.35,0,0,1,.25,1l-.52,3.1a1.41,1.41,0,0,0,.3,1.1l4.53,5.73a1.62,1.62,0,0,0,.18.19,22.35,22.35,0,0,0,6.15,4.34,1.79,1.79,0,0,1,.73.54,44.8,44.8,0,0,0,8.82,8.53A1.76,1.76,0,0,0,44.67,467Z"/><path class="cls-1" d="M131.23,310.81c3.59-.81,14,2.18,21.9,12.88,3.24,4.43,6.38,12.45.55,14.39-4.68.67-15.74-6.24-20.64-15C132.73,322.48,126.41,312.35,131.23,310.81Z"/><path class="cls-1" d="M129.7,315.62c2.47-1.23,9.49,1.52,16.05,8.25,7.6,7.79,7.92,13.8,7.36,14.43"/></g><g id="Hampe"><path class="cls-1" d="M31.75,473.49a.46.46,0,0,0,0,.26,6.38,6.38,0,0,0,2.51,3.11c1.59,1.51,6.46,3,12,4.49l.08,0c1.94.27,2.18.07,2.76-.15a.54.54,0,0,0,.31-.3l3.77-10.26a.51.51,0,0,0-.37-.66c-2.73-.9-5.44-1.92-8.42-3.1l-.15-.08a44.59,44.59,0,0,1-7.37-6.72.6.6,0,0,0-1,.15Z"/><path id="Hamper" class="cls-1" d="M119.17,297.42a1.24,1.24,0,0,0,1.33-.77l12.16-34.84,24.15-72.07,14.35-44.51,16.33-51.72,9.72-30.57,12.57-40.47,4.88-16.36c.22-1.31-19.46-6.43-20.61-5.5L179.31,48.94l-16.45,53.42L143.93,161l-14,43.37L99.17,288.14C100,293.08,109.79,296.46,119.17,297.42Z"/></g><g id="Attache2"><path class="cls-1" d="M137.35,250.89a18.36,18.36,0,0,0-6.87.13,14.69,14.69,0,0,0-7.18.11,14.37,14.37,0,0,0-8.09.47c-5.94-.95-10.95,5.74-4.81,7.08a12.08,12.08,0,0,0,6.58-2.2,43.2,43.2,0,0,0,7.76-.21,30.49,30.49,0,0,0,9.06.58c2.06.35,3.63.18,4.49-.73C139.58,253.93,138.86,252.3,137.35,250.89Z"/><path class="cls-1" d="M137.35,250.89c-2.89-.59-.76,4.32-3.55,6"/><path class="cls-1" d="M130.48,251c-1.1.11-1.83,3.63-5.74,5.25"/><path class="cls-1" d="M123.3,251.13c-.67-.55-2.5,3.77-6.32,5.35"/><path class="cls-1" d="M115.21,251.6c-3,2.13-2.1,4.8-4.81,7.08"/><path class="cls-1" d="M135.85,258.05A21.9,21.9,0,0,0,129,258a17.5,17.5,0,0,0-7.14-.11,16.94,16.94,0,0,0-8,.16c-5.94-1-10.73,4.45-4.58,5.73a12.9,12.9,0,0,0,6.48-1.63,51.74,51.74,0,0,0,7.72.05,36.86,36.86,0,0,0,9,.74c2.07.35,3.62.25,4.45-.48C138.16,260.64,137.4,259.27,135.85,258.05Z"/><path class="cls-1" d="M135.85,258.05c-2.89-.57-.63,3.56-3.36,4.85"/><path class="cls-1" d="M129,258c-1.09.06-1.72,3-5.56,4.2"/><path class="cls-1" d="M121.88,257.85c-.69-.47-2.39,3.06-6.14,4.26"/><path class="cls-1" d="M113.84,258c-2.88,1.68-2,3.93-4.58,5.73"/><path class="cls-1" d="M140.26,245.07c-1.55-1.2-3.46-1.29-5.81-.72a39.66,39.66,0,0,0-10.14-1.41c-2.16-.29-2.18-.83-4.72-.38-1.85,0-3.2-1.35-4.84-.45s-1.94,4.21,0,5c2.56-.23,5.85,1.53,8.37.29,3,1.07,4.75,1.51,7.11.82,2.46.64,4.69,1.55,6.65,1.34,2.38.79,3.7-.34,4.22-1.24C142.05,246.75,141.44,246,140.26,245.07Z"/><path class="cls-1" d="M140.26,245.07c-2.73.15-.79,3.52-3.33,4.47"/><path class="cls-1" d="M134.45,244.35c-2.74,1.1-.44,2.6-4.17,3.85"/><path class="cls-1" d="M126.68,243c-3.65.94-1.18,3.65-3.51,4.34"/><path class="cls-1" d="M119.45,242.55c-3.33,1.72-1.39,3.76-4.65,4.54"/><path class="cls-1" d="M147.32,223.32c-1.55-1.19-3.47-1.28-5.82-.72a40,40,0,0,0-10.13-1.41,24,24,0,0,0-7.09.3c-1.84,0-3.27.26-4.22,1.75-1.26,2-.64,4,1.35,4.75a21.23,21.23,0,0,0,7.62-2.15,35.56,35.56,0,0,0,8.3.62,20,20,0,0,0,6.74.84c2.38.78,3.62.16,4.14-.75C149.11,225,148.5,224.23,147.32,223.32Z"/><path class="cls-1" d="M147.32,223.32c-3.38,1.26-1.16,2.74-3.25,4"/><path class="cls-1" d="M141.5,222.6c-2.73,1.1-.43,2.6-4.17,3.86"/><path class="cls-1" d="M133.73,221.29c-3.64,1-2.36,3.86-4.7,4.55"/><path class="cls-1" d="M126.58,221.17c-3,1.69-1.82,5.48-5.17,6.82"/><path class="cls-1" d="M142.84,233.37c-1.56-1.2-3.47-1.28-5.82-.72a40.09,40.09,0,0,0-10.13-1.41,23.69,23.69,0,0,0-7.1.3c-1.84,0-3.26.26-4.22,1.75-1.25,2-.64,4,1.35,4.75a21.22,21.22,0,0,0,7.63-2.15,35.53,35.53,0,0,0,8.3.62,20.21,20.21,0,0,0,6.74.83c2.38.79,3.61.17,4.14-.74C144.62,235.05,144,234.28,142.84,233.37Z"/><path class="cls-1" d="M142.84,233.37c-3.38,1.25-1.16,2.74-3.25,4"/><path class="cls-1" d="M137,232.65c-2.74,1.1-.44,2.6-4.17,3.86"/><path class="cls-1" d="M129.25,231.34c-3.65.95-2.37,3.86-4.7,4.55"/><path class="cls-1" d="M122.1,231.22c-3,1.69-1.83,5.48-5.18,6.82"/></g><g id="Chevalet"><path class="cls-1" d="M1.2,315.23l63.16,3.56a.2.2,0,0,1,.16.1l6,9.8a.17.17,0,0,1-.18.26L7,325.1a.22.22,0,0,1-.17-.09l-5.7-9.71S1.16,315.23,1.2,315.23Z"/><path class="cls-1" d="M6.76,325.06l-.42,2.48s0,.09.09.09L70,331.28l.59-2.46Z"/><path class="cls-1" d="M.94,315.3.5,317.9a.07.07,0,0,0,0,.05l5.76,9.59s.07,0,.07,0l.42-2.47L1,315.29A0,0,0,0,0,.94,315.3Z"/></g><g id="Coussiner"><path class="cls-1" d="M62.13,308a29.73,29.73,0,0,1,7.46,1.19c4.55,3.21,8.08,6.49,9.38,9.94l-6.7-1A21.58,21.58,0,0,0,62.13,308Z"/><path class="cls-1" d="M72.27,318.1c.66,1.9-.49,5-.28,4.69L78.93,324c.59-2.67.52-3.25,0-4.9Z"/><path class="cls-1" d="M72,322.79l-5.3,22.76a.29.29,0,0,0,.2.33,4,4,0,0,1,1.35.62,7.6,7.6,0,0,1,.94,1.51.35.35,0,0,0,.6,0l9.15-24Z"/><path class="cls-1" d="M62.11,308.06l-1.69,10a2.61,2.61,0,0,0-.08.46l4,.23a.39.39,0,0,1,.25.14l6,10L72,322.79a9.35,9.35,0,0,0,.28-4.69c-2.6-4.8-5.9-8.27-10-10.1A.09.09,0,0,0,62.11,308.06Z"/><path class="cls-1" d="M57.73,330.57l12.26.71L67.51,342A25.43,25.43,0,0,0,57.73,330.57Z"/></g><g id="Support_des_mains_Droite" data-name="Support des mains Droite"><path class="cls-1" d="M111.18,200.26a24.26,24.26,0,0,1-5.91,6.64,1.1,1.1,0,0,0,0,.18,20.52,20.52,0,0,1-4.59-.73,20,20,0,0,1-4.84-2.08l.05-.07a35.23,35.23,0,0,1-.79-8.3,34.56,34.56,0,0,0,8.31,3.19A30.94,30.94,0,0,0,111.18,200.26ZM78,261.79a22,22,0,0,1-2,6.88l0,0a15.15,15.15,0,0,0,8.25,2.76,26.64,26.64,0,0,1,2.46-7,21.74,21.74,0,0,1-4.3-.82A20.6,20.6,0,0,1,78,261.79ZM98.63,212a22.64,22.64,0,0,1-4.72-1.78c-.47,0-.61.14-.73.43l-3.52,11.91-3.51,11.91-3.52,11.9-3.52,11.91c.28.19.58.37.91.56s.67.37,1,.55.76.35,1.18.51.85.31,1.31.45.78.21,1.21.3.85.18,1.25.24.76.11,1.07.14a3.13,3.13,0,0,0,.66,0l3.93-12,3.93-12,4.18-11.57L104,213.85a1,1,0,0,0-.11-.45,2.55,2.55,0,0,0-.37-.42h0A23.06,23.06,0,0,1,98.63,212Zm-3.54-16.19s0,.08,0,.12c.33,1.5,15.39,5.47,16.1,4.36l.09-.16C110,195.62,96.29,192.44,95.09,195.78ZM84.17,271.46a15.15,15.15,0,0,1-8.25-2.76,3.44,3.44,0,0,0-.75,2.38,25.28,25.28,0,0,0,4.08,1.73,24.53,24.53,0,0,0,4.4,1,3.33,3.33,0,0,0,.5-2.17A.78.78,0,0,1,84.17,271.46Zm16.49-65.11a20,20,0,0,1-4.84-2.08,8.83,8.83,0,0,0-1.66,5.88l-.25,0a34.81,34.81,0,0,0,4.77,1.75,36.5,36.5,0,0,0,4.79,1,9.59,9.59,0,0,0,1.78-5.9A20.52,20.52,0,0,1,100.66,206.35ZM75.17,271.08c0,.1-.29.08-.28.18l-3.68,13.18a.56.56,0,0,0,.53.66c4.23.45,7.38-.15,8.62-2l3.37-8.95a.25.25,0,0,0,0-.34,24.6,24.6,0,0,1-8.56-2.72Zm8.38-10.76a16.75,16.75,0,0,1-4.44-2.07l-.09.3a3.65,3.65,0,0,0-1,3c0,.08,0,.17,0,.25a20.6,20.6,0,0,0,4.37,1.89,21.74,21.74,0,0,0,4.3.82l0-.09A3.62,3.62,0,0,0,87.74,261,24.29,24.29,0,0,1,83.55,260.32Z"/><g id="Cordier"><path class="cls-2" d="M21.34,452.06a15.37,15.37,0,0,1-4.56-1.68l2.75-8.78,1.7-5.25a3.68,3.68,0,0,0,.38,1L22.5,439a1.85,1.85,0,0,1,.25,1l-.08,1.62.51.71a1.13,1.13,0,0,1,.21.86l-.5,3a2,2,0,0,0,.41,1.53l.09.11-1,2Z"/><path d="M21.28,437.82l.25.45.54.94a1.39,1.39,0,0,1,.18.73l0,.39-.05,1.06,0,.35.2.28.41.57a.62.62,0,0,1,.13.48l-.25,1.47-.25,1.51a2.39,2.39,0,0,0,.41,1.79L22,449.55l-.93,2a18.36,18.36,0,0,1-3.66-1.35l2.62-8.4,1.28-3.94m.7-5.41-2.93,9-2.82,9c.2.64,4.21,2.09,5.24,2.09a.38.38,0,0,0,.19,0L22.88,450l1.1-2.26-.29-.36a1.5,1.5,0,0,1-.31-1.14l.26-1.51.25-1.47a1.67,1.67,0,0,0-.3-1.23l-.41-.57.05-1.06,0-.39a2.37,2.37,0,0,0-.31-1.27l-.54-.94-.35-.63a2.76,2.76,0,0,1-.32-1.92l.45-2.14-.2-.68Z"/></g></g><g id="Attache"><path class="cls-1" d="M184.79,110.55a13,13,0,0,0-7.7-1.48c-2.29-.55-4.54-1.42-7-.77-3-.56-5.67-.63-8,.31-5.39.79-11.08,5.6-4.94,6.93a12.08,12.08,0,0,0,6.58-2.2,44,44,0,0,0,7.67-.57c2.63.67,5,.54,8.37.35,2.06.35,4.71,1.19,5.27-.13C185.33,112.62,185.64,111,184.79,110.55Z"/><path class="cls-1" d="M184.79,110.55c-4.14.1-2.6,2-4.95,2.57"/><path class="cls-1" d="M177.09,109.07c-1.09.11-1.71,2.08-5.62,3.7"/><path class="cls-1" d="M170.11,108.3c-2.6.87-3.08,4.08-6.31,5"/><path class="cls-1" d="M162.16,108.61c-2.95,2.13-2.23,4.66-4.94,6.93"/><path class="cls-1" d="M177.4,125.49c-.82.35-3.85-1.34-5.2-.69-1.68-.55-3.23-1.7-6.34-1a14.46,14.46,0,0,0-8.09.47c-7.51-1.73-11.59,5.93-3.43,5.83,2.43.25,3.32.34,5.2-.95a21.84,21.84,0,0,0,7.76-.2c2.66,1,3.86,1,7.14.25,2.29.35,4.36.6,5-.31C180.74,126.69,180,124.36,177.4,125.49Z"/><path class="cls-1" d="M177,125.47c-1.33.6-.26,2.56-2.55,3.69"/><path class="cls-1" d="M172.2,124.8c-1.09.11-2,3.82-4.9,4.11"/><path class="cls-1" d="M165.86,123.76c-2.21-.83-3.06,5.11-6.32,5.35"/><path class="cls-1" d="M157.77,124.23c-3,2.13-.72,3.56-3.43,5.83"/><path class="cls-1" d="M160.36,183a18.36,18.36,0,0,0-6.87.13,14.57,14.57,0,0,0-7.18.1,14.46,14.46,0,0,0-8.09.47c-5.94-.94-11,5.75-4.81,7.08A12.15,12.15,0,0,0,140,188.6a43.2,43.2,0,0,0,7.76-.21,30.49,30.49,0,0,0,9.06.58c2.06.34,3.63.18,4.49-.73C162.59,186.05,161.87,184.42,160.36,183Z"/><path class="cls-1" d="M160.36,183c-2.89-.59-.76,4.31-3.55,6"/><path class="cls-1" d="M153.49,183.14c-1.1.11-1.83,3.63-5.74,5.25"/><path class="cls-1" d="M146.31,183.24c-.67-.54-2.5,3.78-6.32,5.36"/><path class="cls-1" d="M138.22,183.71c-3,2.14-2.1,4.81-4.81,7.08"/><path class="cls-1" d="M212.93,16a18.41,18.41,0,0,0-6.88.13,14.65,14.65,0,0,0-7.17.11,14.46,14.46,0,0,0-8.09.47c-5.95-1-10.95,5.74-4.81,7.08a12.08,12.08,0,0,0,6.58-2.2,44.08,44.08,0,0,0,7.76-.2,30.51,30.51,0,0,0,9.06.57c2.06.35,3.63.18,4.49-.73C215.16,19,214.44,17.37,212.93,16Z"/><path class="cls-1" d="M212.93,16c-2.89-.58-.76,4.32-3.55,6"/><path class="cls-1" d="M206.05,16.09c-1.09.11-1.82,3.64-5.73,5.26"/><path class="cls-1" d="M198.88,16.2c-.68-.55-2.51,3.77-6.32,5.35"/><path class="cls-1" d="M190.79,16.67c-3,2.13-2.1,4.81-4.81,7.08"/><path class="cls-1" d="M206.93,36.37c-1.55-1.19-3.47-1.28-5.82-.72A40,40,0,0,0,191,34.24a24,24,0,0,0-7.09.3c-1.85,0-3.27.26-4.22,1.76-1.26,2-.64,4,1.35,4.74a21.23,21.23,0,0,0,7.62-2.15,35.56,35.56,0,0,0,8.3.62,20,20,0,0,0,6.74.84c2.38.78,3.62.16,4.14-.74C208.72,38.06,208.11,37.28,206.93,36.37Z"/><path class="cls-1" d="M206.93,36.37c-3.38,1.26-1.16,2.74-3.25,4"/><path class="cls-1" d="M201.11,35.65c-2.73,1.11-.43,2.6-4.17,3.86"/><path class="cls-1" d="M193.34,34.34c-3.64.95-2.36,3.86-4.7,4.55"/><path class="cls-1" d="M186.19,34.22c-3,1.69-1.82,5.48-5.17,6.82"/><path class="cls-1" d="M173.91,139.9c-1.55-1.19-3.46-1.28-5.81-.72A40.11,40.11,0,0,0,158,137.77a24,24,0,0,0-7.09.3c-1.84,0-3.52.15-4.22,1.76-1.34,3,.79,4.56,2.92,3.51,2.56-.22,3.65.62,6.06-.92a35.53,35.53,0,0,0,8.3.62,20,20,0,0,0,6.74.84c2.37.78,3.61.16,4.13-.74C175.7,141.59,175.09,140.81,173.91,139.9Z"/><path class="cls-1" d="M173.91,139.9c-3.37,1.26-1.15,2.74-3.24,4"/><path class="cls-1" d="M168.1,139.18c-2.74,1.11-.44,2.6-4.17,3.86"/><path class="cls-1" d="M160.33,137.87c-3.65.95-2.37,3.86-4.7,4.55"/><path class="cls-1" d="M153.18,137.75c-3,1.69-.26,4.25-3.61,5.59"/><path class="cls-1" d="M165.87,164.16c-1.55-1.19-3.46-1.28-5.81-.72A40.11,40.11,0,0,0,149.92,162c-2.16-.28-2.18-.82-4.72-.38-1.85,0-3.2-1.34-4.84-.44s-1.94,4.2,0,5c2.56-.22,5.85,1.53,8.37.29,2.95,1.08,4.75,1.52,7.11.83,2.46.64,4.69,1.54,6.65,1.34,2.38.79,3.7-.34,4.22-1.24C167.66,165.85,167.05,165.07,165.87,164.16Z"/><path class="cls-1" d="M165.87,164.16c-2.73.15-.79,3.53-3.33,4.48"/><path class="cls-1" d="M160.06,163.44c-2.74,1.11-.44,2.6-4.17,3.86"/><path class="cls-1" d="M152.29,162.13c-3.65,1-1.18,3.65-3.51,4.34"/><path class="cls-1" d="M145.06,161.65c-3.33,1.72-1.39,3.75-4.65,4.53"/><path class="cls-1" d="M162.46,175.52c-1.55-1.2-3.47-1.29-5.82-.72a40,40,0,0,0-10.13-1.41,23.62,23.62,0,0,0-7.09.3c-1.84,0-3.27.26-4.22,1.75-1.26,2-.64,4,1.35,4.75a21.23,21.23,0,0,0,7.62-2.15,35.56,35.56,0,0,0,8.3.62,20.21,20.21,0,0,0,6.74.83c2.38.79,3.62.17,4.14-.74C164.25,177.2,163.64,176.43,162.46,175.52Z"/><path class="cls-1" d="M162.46,175.52c-3.38,1.25-1.16,2.74-3.25,4"/><path class="cls-1" d="M156.64,174.8c-2.73,1.1-.43,2.6-4.17,3.86"/><path class="cls-1" d="M148.87,173.49c-3.64.95-2.36,3.86-4.7,4.55"/><path class="cls-1" d="M141.72,173.37c-3,1.69-1.82,5.48-5.17,6.82"/><path class="cls-1" d="M201.8,48.73a12.35,12.35,0,0,0-6.29-.72c-4-1.08-7.59-1.49-10.56-.51-2-.17-3.7.11-5,1.37-2.65.25-4.28.94-5.06,2-1,1.62-.83,3.56,1.49,3.95s4.56-1.12,6.72-2.45c4.16.29,7.9.39,10.3-.09,3.36.69,6.06,1.07,7.11.67C203.56,53.36,203.66,49.57,201.8,48.73Z"/><path class="cls-1" d="M195.51,48c2.51,1.13,2.28,3.86,5,4.92"/><path class="cls-1" d="M185,47.5c1.55,2.32,6.46,2.75,8.49,4.76"/><path class="cls-1" d="M180,48.87c-.72,1.41,2.93,2.17,3.15,3.48"/><path class="cls-1" d="M199.89,56.82c-1.2-1-3.13-.42-4.9.29-2.65-.51-5.09-1.16-7.14-.38-2.08-.88-4.93-.82-9.29.38-2.61-.68-4.61-.42-6.28,1-1.09,2-1.69,3.46.92,4.57,1,.41,2.76,0,3.78.15,2.41.41,4.22.83,7.26-.53,2.25,1.17,5.23,1.07,8.24-.33,3.51.62,7.15,1.55,8.06.31C202.23,60.91,202.09,58.63,199.89,56.82Z"/><path class="cls-1" d="M199.89,56.82c-4.42,1.87-3.74,4.75-7.41,5.1"/><path class="cls-1" d="M195,57.11c-3.49.61-6,5.26-11.18,5.2"/><path class="cls-1" d="M187.85,56.73c-3.82,1-6.66,4.56-11.55,6"/><path class="cls-1" d="M178.56,57.11c-2.63.91-3.82,4-7,4.45"/><path class="cls-1" d="M194.9,75.11a9.23,9.23,0,0,0-5.58-.94,12.22,12.22,0,0,0-7.61.58c-2.17-.55-4.81.17-7.71,1.61a7.73,7.73,0,0,0-3.2.2h0l1-3.49c-5.65.73-7.08,7.92-3.94,8.23a11.74,11.74,0,0,0,3.47.21,7.58,7.58,0,0,0,5.5-.19c3.43.12,5.27-.86,6.56-2.26a10.78,10.78,0,0,0,6.15.52c1.88.37,3.47.27,4.73-.81C196,77.24,195.86,75.56,194.9,75.11Z"/><path class="cls-1" d="M194.9,75.11c-3.09,1.34-3.33,4.22-5.39,4.47"/><path class="cls-1" d="M189.32,74.17c-3,1.36-2.92,4.29-6,4.89"/><path class="cls-1" d="M181.71,74.75c-3.57,1.6-1.94,4.94-4.91,6.57"/><path class="cls-1" d="M174,76.36c-1.83,1.38-1,3.87-2.7,5.15"/><path class="cls-1" d="M170.8,76.56c-1.85,1.19-1.15,3.75-3,4.74"/><path class="cls-1" d="M186.51,101.64c-1.8-.89-1.55-.41-1.89-.61-2.41-.7-8.74-.81-11.39.14a10.49,10.49,0,0,0-7.51,1,10.93,10.93,0,0,0-2.93.24l.06-.35.49-2.75c-5.66.73-6.87,7.14-3.73,7.45a12.09,12.09,0,0,0,3.47.21,7.85,7.85,0,0,0,5.56-.57c3.44.12,5.42.07,6.7-1.33a11.37,11.37,0,0,0,6.38.17c1.88.38,2.92,1,4.18,0C187.7,103.71,187.47,102.09,186.51,101.64Z"/><path class="cls-1" d="M184.62,101c-3.1,1.34-.83,4-2.9,4.24"/><path class="cls-1" d="M179.85,100.49c-3.21,1.09-1.23,3.22-4.51,4.61"/><path class="cls-1" d="M173.11,101.14c-3.57,1.6-1.49,3.66-4.47,5.29"/><path class="cls-1" d="M165.72,102.2c-1.83,1.38-1,3.51-2.64,4.8"/><path class="cls-1" d="M162.79,102.44c-1.85,1.19-1.36,3.36-3.18,4.35"/><path class="cls-1" d="M171.7,153.05c-1.81-.89-3.71-.67-5.63-.39a11.94,11.94,0,0,0-7.55.19,10.77,10.77,0,0,0-7.8.54c-1.06-.16-2.34-1.72-3.41-1.42l.63-3.22c-5.66.73-5.5,8.17-2.36,8.48a12.67,12.67,0,0,0,4,1,7.4,7.4,0,0,0,5.42-.51c3.44.12,5.56.63,6.84-.77,2.07.68,2.56.42,4.59-.11,1.88.37,3.84,1.5,5.1.42C173.34,155.72,172.65,153.5,171.7,153.05Z"/><path class="cls-1" d="M171.07,152.79c-3.1,1.34-2.57,3.79-4.63,4"/><path class="cls-1" d="M166.07,152.66c-3,1.37-2.32,3.4-4.22,4.28"/><path class="cls-1" d="M158.52,152.85c-2.18.66-1.31,3.51-3.51,4.86"/><path class="cls-1" d="M150.72,153.39c-2.56.44-2.37,3.44-5.14,3.84"/><path class="cls-1" d="M156.52,195.59a9.32,9.32,0,0,0-5.58-1,12.3,12.3,0,0,0-7.61.59c-2.17-.56-4.81.17-7.72,1.61a7.69,7.69,0,0,0-3.19.2h0l1-3.49c-5.66.73-7.08,7.92-3.95,8.23a11.77,11.77,0,0,0,3.47.21,7.58,7.58,0,0,0,5.5-.19c3.44.12,5.28-.86,6.56-2.26a10.78,10.78,0,0,0,6.15.52c1.88.37,3.47.26,4.74-.81C157.66,197.72,157.48,196,156.52,195.59Z"/><path class="cls-1" d="M156.52,195.59c-3.1,1.34-3.33,4.22-5.4,4.47"/><path class="cls-1" d="M150.94,194.64c-3,1.37-2.92,4.29-6,4.9"/><path class="cls-1" d="M143.33,195.23c-3.57,1.6-1.94,4.94-4.92,6.57"/><path class="cls-1" d="M135.61,196.84c-1.83,1.37-1,3.86-2.7,5.15"/><path class="cls-1" d="M132.42,197c-1.85,1.19-1.16,3.75-3,4.74"/><path class="cls-1" d="M190.1,88.05a9,9,0,0,0-7.25-.55c-4.24-1.51-8.18-1.9-11.58-.39-2.94-.29-5.22.2-6.76,1.55a2.75,2.75,0,0,0-1.94,3.41,2.94,2.94,0,0,0,2.22,1.87c1.22-.08,2.26-1,3.5-2.47a21.76,21.76,0,0,0,9,.32,27,27,0,0,0,8.56.34,4.08,4.08,0,0,0,3.73.63C191.6,91.6,192.74,89.58,190.1,88.05Z"/><path class="cls-1" d="M190.1,88.05c-3.48.84-1.32,3.36-4.23,4.08"/><path class="cls-1" d="M182.85,87.5c-5,.88-2.13,3.22-5.54,4.29"/><path class="cls-1" d="M171.27,87.11c-2.08,1-.53,3.11-3,4.36"/><path class="cls-1" d="M164.51,88.66c-.88,1.84,1.32,3.59.28,5.28"/><path class="cls-1" d="M152.19,205.12a12.35,12.35,0,0,0-6.29-.72c-4-1.08-7.59-1.49-10.56-.51-2-.17-3.7.11-5,1.37-2.65.25-4.28.94-5.06,2-1,1.62-.83,3.56,1.49,3.95s4.56-1.12,6.71-2.45c4.17.29,7.91.39,10.31-.09,3.36.69,6.06,1.07,7.11.67C154,209.76,154.05,206,152.19,205.12Z"/><path class="cls-1" d="M145.9,204.4c2.51,1.13,2.28,3.86,5,4.92"/><path class="cls-1" d="M135.34,203.89c1.55,2.32,6.46,2.75,8.49,4.76"/><path class="cls-1" d="M130.38,205.26c-.72,1.41,2.93,2.17,3.14,3.48"/></g><g id="Cordes"><g id="Cordes-2" data-name="Cordes"><g id="Cordes-3" data-name="Cordes"><line class="cls-3" x1="106.31" y1="263.07" x2="58.72" y2="327.58"/><line class="cls-3" x1="53.78" y1="327.32" x2="107.44" y2="256.44"/><line class="cls-3" x1="114.59" y1="242.55" x2="47.97" y2="326.94"/><line class="cls-3" x1="43.04" y1="326.69" x2="115.41" y2="233.74"/><line class="cls-3" x1="119.9" y1="223.69" x2="37.53" y2="326.19"/><polyline class="cls-3" points="31.32 325.93 125.64 207.18 129.09 205.85"/><polyline class="cls-3" points="133.23 194 127.98 198.2 25.22 325.52"/><polyline class="cls-3" points="19.54 325.28 132.05 185.84 136.52 183.9"/><polyline class="cls-3" points="139.26 174.13 135.27 175.57 13.86 325"/><polyline class="cls-3" points="140.2 161.65 5.2 320.68 3.87 320.85"/><polyline class="cls-3" points="3.3 315.86 3.99 316.92 183.87 19.57 188.83 17.05"/><polyline class="cls-3" points="8.57 316.06 9.26 317.12 179.51 36.74 183.73 34.99"/><polyline class="cls-3" points="179.15 49.38 174.53 51.72 14.88 317.42 14.19 316.36"/><polyline class="cls-3" points="19.9 316.72 20.58 317.79 172.12 58.51 176.73 57.24"/><polyline class="cls-3" points="171.61 73.52 166.19 78.32 26.71 318.04 26.02 316.98"/><polyline class="cls-3" points="32.29 317.44 32.98 318.5 162.74 90.3 167.36 87.68"/><polyline class="cls-3" points="163.18 99.79 157.99 103.39 38.44 318.81 37.76 317.75"/><polyline class="cls-3" points="43.38 319.07 155.09 112.45 160.59 109.35"/><polyline class="cls-3" points="150.72 138.51 146.46 141.35 49.06 319.35 48.38 318.29"/><polyline class="cls-3" points="53.39 318.56 54.08 319.63 149.8 127.48 155.72 124.43"/><polyline class="cls-3" points="58.72 327.6 59.28 328.6 58.86 331.09 29.73 447.47"/><polyline class="cls-3" points="53.78 327.32 54.39 328.32 53.97 330.81 30.29 444.13 29.62 448.11 28.96 448.68"/><line class="cls-3" x1="49.54" y1="330.56" x2="30.04" y2="443.88"/><polyline class="cls-3" points="47.97 326.94 48.62 327.98 48.19 330.48 29.82 443.62"/><line class="cls-3" x1="45.43" y1="330.32" x2="29.53" y2="443.38"/><polyline class="cls-3" points="43.72 327.69 43.3 330.2 29.23 443.08"/><line class="cls-3" x1="40.64" y1="330.19" x2="28.91" y2="442.75"/><polyline class="cls-3" points="38.29 327.37 37.86 329.89 28.61 442.45"/><line class="cls-3" x1="35.62" y1="329.76" x2="28.28" y2="442.12"/><line class="cls-3" x1="32.47" y1="329.58" x2="27.95" y2="441.79"/><line class="cls-3" x1="30.7" y1="329.57" x2="27.61" y2="441.45"/><polyline class="cls-3" points="25.21 325.56 25.91 326.7 25.55 329.18 27.31 441.15"/><polyline class="cls-3" points="19.54 325.28 20.18 326.31 19.76 328.85 26.94 440.78"/><line class="cls-3" x1="14.9" y1="328.57" x2="26.61" y2="440.45"/><line class="cls-3" x1="9.63" y1="328.27" x2="26.24" y2="440.07"/><line class="cls-3" x1="8.26" y1="328.19" x2="25.83" y2="439.67"/><line class="cls-3" x1="4.98" y1="326.09" x2="25.45" y2="439.29"/><polyline class="cls-3" points="8.66 328.37 9.09 325.81 8.41 324.75 144.28 151.15 147.78 149.19"/></g><line class="cls-1" x1="143.58" y1="161.87" x2="140.2" y2="161.65"/></g><polyline class="cls-1" points="13.88 324.91 14.56 325.98 14.13 328.53"/><polyline class="cls-1" points="31.32 325.93 32.06 327 31.63 329.53"/><line class="cls-1" x1="37.54" y1="326.14" x2="38.3" y2="327.33"/><line class="cls-1" x1="43.05" y1="326.63" x2="43.72" y2="327.73"/><line class="cls-1" x1="42.69" y1="318" x2="43.38" y2="319.07"/></g><g id="Support_des_mains_Gauches" data-name="Support des mains Gauches"><path class="cls-1" d="M132.2,217.52a24.33,24.33,0,0,1-6.24,6.39l0,.17a20.5,20.5,0,0,1-4.55-.9,19.78,19.78,0,0,1-4.74-2.26s0,0,0-.07a34.6,34.6,0,0,1-.38-8.31,33.91,33.91,0,0,0,8.15,3.5A30.81,30.81,0,0,0,132.2,217.52ZM95.91,277.58a22.25,22.25,0,0,1-2.35,6.78l0,0a15,15,0,0,0,4.28,2.29,15.14,15.14,0,0,0,3.85.78,26.22,26.22,0,0,1,2.8-6.84,21.32,21.32,0,0,1-4.26-1A21,21,0,0,1,95.91,277.58Zm23.15-48.88a22.34,22.34,0,0,1-4.63-2c-.47,0-.61.12-.75.41l-4.11,11.73-4.11,11.74-4.11,11.74L97.24,274.1l.88.59c.32.19.66.39,1,.58s.74.38,1.15.56.84.34,1.29.5.78.24,1.2.35.84.21,1.24.28.76.15,1.06.19a3.54,3.54,0,0,0,.66,0l4.53-11.82,4.53-11.82,4.75-11.38,4.75-11.38a.94.94,0,0,0-.09-.45,3,3,0,0,0-.35-.43h0A23.63,23.63,0,0,1,119.06,228.7Zm-2.74-16.28a.49.49,0,0,1,0,.12c.26,1.51,15.13,6.06,15.89,5l.11-.16C131.29,212.85,117.69,209.14,116.32,212.42Zm-14.66,75a15.14,15.14,0,0,1-3.85-.78,15,15,0,0,1-4.28-2.29,3.45,3.45,0,0,0-.86,2.34,24.38,24.38,0,0,0,4,1.89,25.11,25.11,0,0,0,4.35,1.15,3.26,3.26,0,0,0,.61-2.15A1.24,1.24,0,0,1,101.66,287.46Zm19.72-64.28a19.78,19.78,0,0,1-4.74-2.26,8.86,8.86,0,0,0-2,5.8l-.25,0a35.56,35.56,0,0,0,9.43,3.16,9.55,9.55,0,0,0,2.07-5.82A20.5,20.5,0,0,1,121.38,223.18ZM92.67,286.73c0,.11-.3.07-.29.17l-4.25,12.75a.6.6,0,0,0,.54.75c4.17.62,7.26.31,8.59-1.48l3.82-8.8a.24.24,0,0,0,0-.34,25.72,25.72,0,0,1-4.43-1.16A24.38,24.38,0,0,1,92.67,286.73Zm8.91-10.4a17.12,17.12,0,0,1-4.34-2.23l-.1.28A3.69,3.69,0,0,0,96,277.33a2.21,2.21,0,0,1,0,.25,21,21,0,0,0,4.29,2.05,21.32,21.32,0,0,0,4.26,1,.41.41,0,0,1,.05-.09,3.63,3.63,0,0,0,1.23-3.34A24.08,24.08,0,0,1,101.58,276.33Z"/><path class="cls-1" d="M28,454.06l-3.92,11.25a.49.49,0,0,0,.08.49c.87,1.1,4.15,2.19,5.47,1.73a.58.58,0,0,0,.33-.3l4.1-9.29a.57.57,0,0,0-.3-.72A23.36,23.36,0,0,1,29,453.86.66.66,0,0,0,28,454.06Z"/></g></g></g></svg>